<?xml version="1.0" encoding="UTF-8" standalone="no"?>
<!-- Created with Inkscape (http://www.inkscape.org/) -->
<svg
   xmlns:dc="http://purl.org/dc/elements/1.1/"
   xmlns:cc="http://web.resource.org/cc/"
   xmlns:rdf="http://www.w3.org/1999/02/22-rdf-syntax-ns#"
   xmlns:svg="http://www.w3.org/2000/svg"
   xmlns="http://www.w3.org/2000/svg"
   xmlns:sodipodi="http://sodipodi.sourceforge.net/DTD/sodipodi-0.dtd"
   xmlns:inkscape="http://www.inkscape.org/namespaces/inkscape"
   width="921.29346"
   height="471.85132"
   id="svg2024"
   sodipodi:version="0.32"
   inkscape:version="0.44"
   version="1.0"
   sodipodi:docbase="C:\Dokumente und Einstellungen\Andreas\Eigene Dateien\Eigene Bilder\sonstiges\Logos\Vektor\Sports"
   sodipodi:docname="adidas-group-logo.svg">
  <defs
     id="defs2026" />
  <sodipodi:namedview
     id="base"
     pagecolor="#ffffff"
     bordercolor="#666666"
     borderopacity="1.0"
     inkscape:pageopacity="0.0"
     inkscape:pageshadow="2"
     inkscape:zoom="0.35"
     inkscape:cx="350"
     inkscape:cy="520"
     inkscape:document-units="px"
     inkscape:current-layer="layer1"
     inkscape:window-width="904"
     inkscape:window-height="574"
     inkscape:window-x="161"
     inkscape:window-y="161" />
  <metadata
     id="metadata2029">
    <rdf:RDF>
      <cc:Work
         rdf:about="">
        <dc:format>image/svg+xml</dc:format>
        <dc:type
           rdf:resource="http://purl.org/dc/dcmitype/StillImage" />
      </cc:Work>
    </rdf:RDF>
  </metadata>
  <g
     inkscape:label="Ebene 1"
     inkscape:groupmode="layer"
     id="layer1"
     transform="translate(222.0753,-417.8514)">
    <g
       id="g2047">
      <path
         style="fill:gray;fill-rule:nonzero;stroke:none"
         d="M 660.46667,723.02972 L -183.77385,723.27975 L -183.77385,716.86284 L 660.46667,716.61281 L 660.46667,723.02972"
         class="ps01"
         id="path32" />
      <path
         style="fill:gray;fill-rule:nonzero;stroke:none"
         d="M -141.06391,631.85962 C -185.64057,631.85962 -222.0753,595.2749 -222.0753,550.77319 C -222.0753,505.18814 -185.64057,469.68676 -141.06391,469.68676 C -123.75494,469.68676 -107.37095,474.27025 -93.670442,483.4373 L -93.670442,471.52019 L -55.510605,471.52019 L -55.510605,628.10945 L -93.670442,628.10945 L -93.670442,618.10908 C -107.37095,626.27611 -122.77983,631.85962 -141.06391,631.85962 z M -184.66555,550.77319 C -184.66555,574.35746 -163.75639,595.2749 -140.08889,595.2749 C -114.62954,595.2749 -93.670442,574.35746 -93.670442,550.77319 C -93.670442,526.18889 -114.62954,505.18814 -140.08889,505.18814 C -163.75639,505.18814 -184.66555,526.18889 -184.66555,550.77319 z M 39.176283,631.85962 C -5.4420301,631.85962 -42.743454,595.2749 -42.743454,550.77319 C -42.743454,505.18814 -5.4420301,469.68676 39.176283,469.68676 C 56.451969,469.68676 71.994274,474.27025 85.628115,483.4373 L 85.628115,417.85143 L 124.7546,417.85143 L 124.7546,628.10945 L 85.628115,628.10945 L 85.628115,618.10908 C 71.994274,626.27611 56.451969,631.85962 39.176283,631.85962 z M -5.4420301,550.77319 C -5.4420301,574.35746 15.50879,595.2749 41.009711,595.2749 C 64.635638,595.2749 85.628115,574.35746 85.628115,550.77319 C 85.628115,526.18889 64.635638,505.18814 41.009711,505.18814 C 15.50879,505.18814 -5.4420301,526.18889 -5.4420301,550.77319 z M 182.04011,628.10945 L 143.8136,628.10945 L 143.8136,471.52019 L 182.04011,471.52019 L 182.04011,628.10945 z M 182.04011,457.01966 L 143.8136,457.01966 L 143.8136,417.85143 L 182.04011,417.85143 L 182.04011,457.01966 z M 325.95389,417.85143 L 364.122,417.85143 L 364.122,628.10945 L 325.95389,628.10945 L 325.95389,618.10908 C 313.20347,626.27611 296.78611,631.85962 279.45212,631.85962 C 234.78379,631.85962 198.48239,595.2749 198.48239,550.77319 C 198.48239,505.18814 234.78379,469.68676 279.45212,469.68676 C 296.78611,469.68676 312.20336,474.27025 325.95389,483.4373 L 325.95389,417.85143 z M 235.78381,550.77319 C 235.78381,574.35746 256.70125,595.2749 280.36884,595.2749 C 304.95314,595.2749 325.95389,574.35746 325.95389,550.77319 C 325.95389,526.18889 304.95314,505.18814 280.36884,505.18814 C 256.70125,505.18814 235.78381,526.18889 235.78381,550.77319 z M 458.79234,631.85962 C 414.12391,631.85962 376.87251,595.2749 376.87251,550.77319 C 376.87251,505.18814 414.12391,469.68676 458.79234,469.68676 C 476.12632,469.68676 491.54357,474.27025 504.29408,483.4373 L 504.29408,471.52019 L 543.3789,471.52019 L 543.3789,628.10945 L 504.29408,628.10945 L 504.29408,618.10908 C 491.54357,626.27611 476.12632,631.85962 458.79234,631.85962 z M 415.04062,550.77319 C 415.04062,574.35746 436.04147,595.2749 460.62568,595.2749 C 484.20995,595.2749 504.29408,574.35746 504.29408,550.77319 C 504.29408,526.18889 484.20995,505.18814 460.62568,505.18814 C 436.04147,505.18814 415.04062,526.18889 415.04062,550.77319 z M 629.04881,631.85962 C 667.30024,631.85962 699.21816,616.19234 699.21816,577.94092 C 699.21816,556.10676 683.80091,541.60614 659.21662,535.27263 C 633.63229,528.85572 600.96437,529.85575 600.96437,513.43848 C 602.71449,502.5214 612.79816,499.77126 628.21541,499.77126 C 651.88299,499.77126 652.79971,512.52176 653.71642,520.6887 L 692.80125,520.6887 C 690.05111,490.60421 665.55021,469.68676 626.46538,469.68676 C 585.46381,469.68676 561.71292,491.60423 561.71292,519.85539 C 561.71292,536.18935 569.87985,550.77319 583.63039,558.0235 C 593.63075,562.60698 607.29797,566.19044 623.63193,568.94058 C 640.96592,570.6906 656.54988,572.52403 657.38319,584.44114 C 657.38319,592.69148 649.13294,602.60853 630.96555,602.60853 C 604.54783,602.60853 599.13103,588.02459 599.13103,577.94092 L 558.12946,577.94092 C 559.04618,609.85875 585.46381,631.85962 629.04881,631.85962"
         class="ps01"
         id="path34" />
      <path
         style="fill:gray;fill-rule:evenodd;stroke:none"
         d="M 673.46712,421.51829 C 683.46757,421.51829 691.80122,429.76863 691.80122,440.6023 C 691.80122,450.51935 683.46757,458.76969 673.46712,458.76969 C 663.55016,458.76969 655.21651,450.51935 655.21651,440.6023 C 655.21651,429.76863 663.55016,421.51829 673.46712,421.51829 z M 673.46712,424.0184 C 664.46678,424.0184 657.79993,431.43534 657.79993,440.6023 C 657.79993,448.85264 664.46678,456.26957 673.46712,456.26957 C 681.88417,456.26957 689.2178,448.85264 689.2178,440.6023 C 689.2178,431.43534 681.88417,424.0184 673.46712,424.0184 z M 677.63394,440.6023 C 678.55066,440.6023 680.96746,441.4357 680.96746,444.68581 L 680.96746,450.51935 L 677.63394,450.51935 L 677.63394,448.01924 C 677.63394,443.85241 676.80063,442.1857 674.30052,442.1857 L 670.21701,442.1857 L 670.21701,450.51935 L 666.88358,450.51935 L 666.88358,429.76863 L 673.46712,429.76863 C 677.63394,429.76863 680.96746,432.35205 680.96746,435.60216 C 680.96746,438.10228 679.38406,440.6023 677.63394,440.6023 z M 670.21701,433.10205 L 670.21701,438.93559 L 673.46712,438.93559 C 675.21723,438.93559 677.63394,438.10228 677.63394,436.43547 C 677.63394,434.76876 676.05064,433.10205 674.30052,433.10205 L 670.21701,433.10205"
         class="ps02"
         id="path36" />
      <g
         id="g2040">
        <path
           id="path38"
           class="ps01"
           d="M 20.892293,878.03566 C 13.775319,885.70263 4.2582793,889.70274 -6.1170825,889.70274 C -16.067421,889.70274 -25.159438,886.03597 -31.968081,879.20241 C -41.501765,869.6187 -41.501765,859.70165 -41.501765,838.28415 C -41.501765,816.78334 -41.501765,806.86629 -31.968081,797.28258 C -25.159438,790.53233 -16.209126,786.78216 -6.1170825,786.78216 C 13.208682,786.78216 26.275795,799.28264 29.259232,817.03337 L 18.467215,817.03337 C 15.625392,804.28286 6.5333753,796.44927 -6.1170825,796.44927 C -12.792298,796.44927 -19.192563,799.19932 -23.592774,803.69949 C -29.992948,810.28312 -30.70138,817.03337 -30.70138,838.28415 C -30.70138,859.45162 -29.992948,866.36859 -23.592774,872.95212 C -19.192563,877.45229 -12.792298,880.03572 -6.1170825,880.03572 C 1.2748421,880.03572 8.3834484,877.03564 13.075345,871.36873 C 17.192146,866.36859 18.750534,860.86839 18.750534,853.03471 L 18.750534,845.36775 L -6.1170825,845.36775 L -6.1170825,835.78404 L 29.550918,835.78404 L 29.550918,851.86797 C 29.550918,863.53513 27.142485,871.36873 20.892293,878.03566"
           style="fill:gray;fill-rule:nonzero;stroke:none" />
        <path
           id="path40"
           class="ps01"
           d="M 123.77958,797.28258 L 96.77021,797.28258 L 96.77021,834.36735 L 123.77958,834.36735 C 135.55498,834.36735 143.94694,828.28379 143.94694,815.94994 C 143.94694,803.61618 135.55498,797.28258 123.77958,797.28258 z M 144.08027,888.86943 L 121.06273,843.95106 L 96.77021,843.95106 L 96.77021,888.86943 L 85.961457,888.86943 L 85.961457,787.61556 L 124.7546,787.61556 C 142.38855,787.61556 154.74741,798.28261 154.74741,815.78331 C 154.74741,830.53387 145.79701,840.20089 132.7299,842.95104 L 156.7391,888.86943 L 144.08027,888.86943"
           style="fill:gray;fill-rule:nonzero;stroke:none" />
        <path
           id="path42"
           class="ps01"
           d="M 259.4514,803.69949 C 255.03454,799.19932 248.70095,796.44927 242.03401,796.44927 C 235.28376,796.44927 228.95025,799.19932 224.53339,803.69949 C 218.11649,810.28312 217.4498,817.03337 217.4498,838.28415 C 217.4498,859.45162 218.11649,866.20187 224.53339,872.7855 C 228.95025,877.28567 235.28376,880.03572 242.03401,880.03572 C 248.70095,880.03572 255.03454,877.28567 259.4514,872.7855 C 265.86831,866.20187 266.6183,859.45162 266.6183,838.28415 C 266.6183,817.03337 265.86831,810.28312 259.4514,803.69949 z M 267.86836,879.20241 C 261.0348,886.03597 252.11777,889.70274 242.03401,889.70274 C 231.95033,889.70274 222.95,886.03597 216.11643,879.20241 C 206.61604,869.6187 206.61604,859.70165 206.61604,838.28415 C 206.61604,816.78334 206.61604,806.86629 216.11643,797.28258 C 222.95,790.53233 231.95033,786.78216 242.03401,786.78216 C 252.11777,786.78216 261.0348,790.53233 267.86836,797.28258 C 277.36876,806.86629 277.36876,816.78334 277.36876,838.28415 C 277.36876,859.70165 277.36876,869.6187 267.86836,879.20241"
           style="fill:gray;fill-rule:nonzero;stroke:none" />
        <path
           id="path44"
           class="ps01"
           d="M 367.95549,889.70274 C 347.4547,889.70274 332.70414,875.61895 332.70414,855.45151 L 332.70414,787.61556 L 343.45459,787.61556 L 343.45459,854.61811 C 343.45459,869.95204 353.12161,880.03572 367.95549,880.03572 C 382.70605,880.03572 392.53978,869.95204 392.53978,854.61811 L 392.53978,787.61556 L 403.29024,787.61556 L 403.29024,855.45151 C 403.29024,875.61895 388.37296,889.70274 367.95549,889.70274"
           style="fill:gray;fill-rule:nonzero;stroke:none" />
        <path
           id="path46"
           class="ps01"
           d="M 499.04382,797.28258 L 473.20956,797.28258 L 473.20956,837.53415 L 499.04382,837.53415 C 511.71101,837.53415 520.54463,830.7005 520.54463,817.36671 C 520.54463,804.03283 511.71101,797.28258 499.04382,797.28258 z M 500.04385,847.20117 L 473.20956,847.20117 L 473.20956,888.86943 L 462.37579,888.86943 L 462.37579,787.61556 L 500.04385,787.61556 C 518.54458,787.61556 531.29508,799.19932 531.29508,817.36671 C 531.29508,835.53401 518.54458,847.20117 500.04385,847.20117"
           style="fill:gray;fill-rule:nonzero;stroke:none" />
      </g>
    </g>
  </g>
</svg>
