<?xml version="1.0" encoding="UTF-8" standalone="no"?>
<!-- Created with Inkscape (http://www.inkscape.org/) -->

<svg
   xmlns:dc="http://purl.org/dc/elements/1.1/"
   xmlns:cc="http://creativecommons.org/ns#"
   xmlns:rdf="http://www.w3.org/1999/02/22-rdf-syntax-ns#"
   xmlns:svg="http://www.w3.org/2000/svg"
   xmlns="http://www.w3.org/2000/svg"
   xmlns:sodipodi="http://sodipodi.sourceforge.net/DTD/sodipodi-0.dtd"
   xmlns:inkscape="http://www.inkscape.org/namespaces/inkscape"
   width="300"
   height="48.627613"
   id="svg2"
   version="1.1"
   inkscape:version="0.91 r"
   sodipodi:docname="American_Eagle_Outfitters_text logo.svg"
   inkscape:export-filename="/home/matti/Downloads/SVG/American_Eagle_Outfitters_text logo.png"
   inkscape:export-xdpi="300"
   inkscape:export-ydpi="300">
  <defs
     id="defs4" />
  <sodipodi:namedview
     id="base"
     pagecolor="#ffffff"
     bordercolor="#666666"
     borderopacity="1.0"
     inkscape:pageopacity="0.0"
     inkscape:pageshadow="2"
     inkscape:zoom="2.230907"
     inkscape:cx="15.19647"
     inkscape:cy="5.1098037"
     inkscape:document-units="px"
     inkscape:current-layer="layer1"
     showgrid="false"
     inkscape:window-width="1215"
     inkscape:window-height="776"
     inkscape:window-x="65"
     inkscape:window-y="24"
     inkscape:window-maximized="1"
     fit-margin-top="0"
     fit-margin-left="0"
     fit-margin-right="0"
     fit-margin-bottom="0" />
  <metadata
     id="metadata7">
    <rdf:RDF>
      <cc:Work
         rdf:about="">
        <dc:format>image/svg+xml</dc:format>
        <dc:type
           rdf:resource="http://purl.org/dc/dcmitype/StillImage" />
        <dc:title></dc:title>
      </cc:Work>
    </rdf:RDF>
  </metadata>
  <g
     inkscape:label="Layer 1"
     inkscape:groupmode="layer"
     id="layer1"
     transform="translate(514.25293,-801.38782)">
    <g
       id="g3369"
       transform="matrix(4.0966817,0,0,4.0966817,1592.4776,-2632.2271)">
      <path
         id="path4390"
         style="fill:#231f20;fill-opacity:1;fill-rule:nonzero;stroke:none"
         d="m -512.38542,841.3629 0.69375,-1.6625 0.655,1.6625 -1.34875,0 z m 3.42625,1.7625 c -0.17125,0 -0.3475,-0.1 -0.4475,-0.31 l -1.8375,-4.67 -0.415,0 -1.83375,4.67 c -0.1025,0.21 -0.27625,0.31 -0.45,0.31 l -0.31,0 0,0.38375 1.93625,0 0,-0.38375 -0.37875,0 c -0.175,0 -0.3125,-0.17 -0.24375,-0.31 l 0.38375,-0.96875 1.69375,0 0.415,0.96875 c 0.035,0.14 -0.07,0.31 -0.275,0.31 l -0.38375,0 0,0.38375 2.45625,0 0,-0.38375 -0.31,0 z"
         inkscape:connector-curvature="0" />
      <path
         id="path4392"
         style="fill:#231f20;fill-opacity:1;fill-rule:nonzero;stroke:none"
         d="m -503.51292,843.50915 0,-0.38375 0.38125,0 c 0.17125,0 0.31,-0.17 0.31,-0.31 l 0,-3.28875 -1.7975,3.9825 -0.4875,0 -1.8,-3.9825 0,3.28875 c 0,0.14 0.14,0.31 0.3125,0.31 l 0.38125,0 0,0.38375 -1.90375,0 0,-0.38375 0.3825,0 c 0.17125,0 0.31,-0.17 0.31,-0.31 l 0,-3.87625 c 0,-0.17375 -0.13875,-0.31 -0.31,-0.31 l -0.3825,0 0,-0.415 1.69625,0 1.765,3.97875 1.8,-3.97875 1.73,0 0,0.415 -0.3825,0 c -0.17125,0 -0.31,0.13625 -0.31,0.31 l 0,3.87625 c 0,0.14 0.13875,0.31 0.31,0.31 l 0.3825,0 0,0.38375 -2.3875,0 z"
         inkscape:connector-curvature="0" />
      <path
         id="path4394"
         style="fill:#231f20;fill-opacity:1;fill-rule:nonzero;stroke:none"
         d="m -500.46792,843.50915 0,-0.38375 0.38,0 c 0.17125,0 0.31,-0.17 0.31,-0.31 l 0,-3.87625 c 0,-0.17375 -0.13875,-0.31 -0.31,-0.31 l -0.38,0 0,-0.415 4.465,0 0,1.7625 -0.415,0 0,-0.17125 c 0,-0.625 -0.48625,-1.10875 -1.11125,-1.10875 l -1.20875,0 0,1.905 0.52,0 c 0.3475,0 0.62375,-0.27875 0.62375,-0.625 l 0,-0.205 0.4125,0 0,2.10875 -0.4125,0 0,-0.2075 c 0,-0.34375 -0.27625,-0.6225 -0.62375,-0.6225 l -0.52,0 0,2.0075 1.34875,0 c 0.625,0 1.11,-0.52 1.11,-1.10875 l 0,-0.37875 0.415,0 0,1.93875 -4.60375,0 z"
         inkscape:connector-curvature="0" />
      <path
         id="path4400"
         style="fill:#231f20;fill-opacity:1;fill-rule:nonzero;stroke:none"
         d="m -493.37167,840.56665 0,-1.87 0.97,0 c 0.5175,0 0.86125,0.415 0.86125,0.935 0.002,0.52 -0.34125,0.935 -0.86125,0.935 l -0.97,0 z m 3.21625,2.55875 c -0.205,0 -0.37875,-0.13625 -0.5175,-0.31 l -1.10625,-1.765 c 0.75875,-0.0338 1.27625,-0.65875 1.27625,-1.41875 0,-0.795 -0.5875,-1.4175 -1.3475,-1.4175 l -3.25375,0 0,0.415 0.3775,0 c 0.2125,0 0.3125,0.13625 0.3125,0.31 l 0.002,3.87625 c 0,0.14 -0.1025,0.31 -0.3125,0.31 l -0.38,0 0,0.38375 2.42125,0 0,-0.38375 -0.37875,0 c -0.175,0 -0.31,-0.17 -0.31,-0.31 l 0,-1.765 0.4475,0 1.52375,2.45875 1.48875,0 0,-0.38375 -0.24375,0 z"
         inkscape:connector-curvature="0" />
      <path
         id="path4402"
         style="fill:#231f20;fill-opacity:1;fill-rule:nonzero;stroke:none"
         d="m -489.32292,843.50915 0,-0.38375 0.38,0 c 0.17125,0 0.31,-0.17 0.31,-0.31 l 0,-3.87625 c 0,-0.17375 -0.13875,-0.31 -0.3125,-0.31 l -0.3775,0 0,-0.415 2.42125,0 0,0.415 -0.38,0 c -0.17375,0 -0.31125,0.13625 -0.31125,0.31 l 0,3.87625 c 0,0.14 0.1375,0.31 0.31125,0.31 l 0.38,0 0,0.38375 -2.42125,0 z"
         inkscape:connector-curvature="0" />
      <path
         id="path4406"
         style="fill:#231f20;fill-opacity:1;fill-rule:nonzero;stroke:none"
         d="m -483.71792,843.61165 c -1.69375,0 -2.7,-1.1425 -2.7,-2.735 0,-1.625 1.00625,-2.73125 2.6975,-2.73125 1.21375,0 1.94125,0.34375 1.94125,0.34375 l 0,1.4875 -0.4175,0 c -0.135,-0.79625 -0.58625,-1.385 -1.52375,-1.385 -1.10625,0 -1.58875,1.075 -1.58875,2.285 0,1.1775 0.55375,2.24875 1.59125,2.24875 0.935,0 1.38625,-0.5175 1.52125,-1.48625 l 0.4175,0 0,1.59125 c 0,0 -0.65875,0.38125 -1.93875,0.38125"
         inkscape:connector-curvature="0" />
      <path
         id="path4412"
         style="fill:#231f20;fill-opacity:1;fill-rule:nonzero;stroke:none"
         d="m -479.49417,841.3629 0.65625,-1.6625 0.69375,1.6625 -1.35,0 z m 3.39125,1.7625 c -0.17375,0 -0.34625,-0.1 -0.44875,-0.31 l -1.83375,-4.67 -0.38375,0 -1.87,4.67 c -0.0688,0.21 -0.27625,0.31 -0.44625,0.31 l -0.3125,0 0,0.38375 1.9375,0 0,-0.38375 -0.38,0 c -0.17375,0 -0.27875,-0.17 -0.245,-0.31 l 0.38375,-0.96875 1.73125,0 0.3775,0.96875 c 0.0687,0.14 -0.0675,0.31 -0.24125,0.31 l -0.38125,0 0,0.38375 2.45625,0 0,-0.38375 -0.34375,0 z"
         inkscape:connector-curvature="0" />
      <path
         id="path4416"
         style="fill:#231f20;fill-opacity:1;fill-rule:nonzero;stroke:none"
         d="m -469.82917,838.62915 c -0.175,0 -0.3125,0.13625 -0.3125,0.31 l 0,4.6725 -0.5175,0 -3.3225,-4.1525 0,3.35625 c 0,0.14 0.13875,0.31 0.3125,0.31 l 0.45,0 0,0.38375 -2.1125,0 0,-0.38375 0.52,0 c 0.17375,0 0.31,-0.17 0.31,-0.31 l 0,-3.87625 c 0,-0.17375 -0.13625,-0.31 -0.31,-0.31 l -0.52,0 0,-0.415 1.66,0 3.0125,3.735 0,-3.01 c 0,-0.17375 -0.13875,-0.31 -0.3125,-0.31 l -0.5175,0 0,-0.415 2.11,0 0,0.415 -0.45,0 z"
         inkscape:connector-curvature="0" />
    </g>
    <g
       id="g3386"
       transform="matrix(4.0966817,0,0,4.0966817,1592.4776,-2632.2271)">
      <path
         id="path4396"
         style="fill:#231f20;fill-opacity:1;fill-rule:nonzero;stroke:none"
         d="m -496.03917,849.63415 c -1.00125,0 -1.31125,-0.7975 -1.31125,-1.83375 0,-1.04 0.31,-1.835 1.31125,-1.835 1.0025,0 1.28125,0.795 1.28125,1.835 0,1.03625 -0.27875,1.83375 -1.28125,1.83375 m 0,-4.05 c -1.385,0 -2.2125,0.90125 -2.2125,2.21625 0,1.31375 0.8275,2.215 2.2125,2.215 1.2475,0 2.21625,-0.86625 2.21625,-2.215 0,-1.3525 -0.96875,-2.21625 -2.21625,-2.21625"
         inkscape:connector-curvature="0" />
      <path
         id="path4398"
         style="fill:#231f20;fill-opacity:1;fill-rule:nonzero;stroke:none"
         d="m -489.21792,845.9654 c -0.14,0 -0.245,0.13875 -0.245,0.2775 l 0,2.24875 c 0,0.9325 -0.76125,1.52375 -1.69375,1.52375 -0.935,0 -1.6975,-0.59125 -1.6975,-1.52375 l 0,-2.24875 c 0,-0.13875 -0.10375,-0.2775 -0.24125,-0.2775 l -0.38125,0 0,-0.3125 2.07625,0 0,0.3125 -0.37875,0 c -0.1025,0 -0.24375,0.13875 -0.24375,0.2775 l 0,2.24875 c 0,0.6575 0.485,1.00375 1.07125,1.00375 0.59125,0 1.04,-0.34625 1.04,-1.00375 l 0,-2.24875 c 0,-0.13875 -0.1025,-0.2775 -0.24375,-0.2775 l -0.37875,0 0,-0.3125 1.66,0 0,0.3125 -0.34375,0 z"
         inkscape:connector-curvature="0" />
      <path
         id="path4404"
         style="fill:#231f20;fill-opacity:1;fill-rule:nonzero;stroke:none"
         d="m -484.89417,847.07165 0,-0.1375 c 0,-0.52 -0.415,-0.90125 -0.89875,-0.90125 l -0.34625,0 0,3.32375 c 0,0.13875 0.1025,0.24125 0.23875,0.24125 l 0.3125,0 0,0.34625 -1.93625,0 0,-0.34625 0.31,0 c 0.14,0 0.245,-0.1025 0.245,-0.24125 l 0,-3.32375 -0.3475,0 c -0.48375,0 -0.89625,0.38125 -0.89625,0.90125 l 0,0.1375 -0.315,0 0,-1.41875 3.94625,0 0,1.41875 -0.3125,0 z"
         inkscape:connector-curvature="0" />
      <path
         id="path4408"
         style="fill:#231f20;fill-opacity:1;fill-rule:nonzero;stroke:none"
         d="m -480.84167,847.07165 0,-0.1375 c 0,-0.52 -0.4175,-0.90125 -0.9375,-0.90125 l -0.97,0 0,1.55875 0.38375,0 c 0.31,0 0.515,-0.2425 0.515,-0.52 l 0,-0.17125 0.3125,0 0,1.72875 -0.3125,0 0,-0.17125 c 0,-0.27875 -0.205,-0.48625 -0.515,-0.48625 l -0.38375,0 0,1.385 c 0,0.13875 0.105,0.24125 0.2425,0.24125 l 0.48625,0 0,0.34625 -2.1125,0 0,-0.34625 0.3125,0 c 0.13875,0 0.24125,-0.1025 0.24125,-0.24125 l 0,-3.11375 c 0,-0.13875 -0.1025,-0.2775 -0.24125,-0.2775 l -0.3125,0 0,-0.3125 3.60125,0 0,1.41875 -0.31,0 z"
         inkscape:connector-curvature="0" />
      <path
         id="path4410"
         style="fill:#231f20;fill-opacity:1;fill-rule:nonzero;stroke:none"
         d="m -480.01417,849.94415 0,-0.34625 0.3125,0 c 0.13625,0 0.24125,-0.1025 0.24125,-0.24125 l 0,-3.11375 c 0,-0.13875 -0.105,-0.2775 -0.24125,-0.2775 l -0.3125,0 0,-0.3125 1.9725,0 0,0.3125 -0.3125,0 c -0.13375,0 -0.27625,0.13875 -0.27625,0.2775 l 0,3.11375 c 0,0.13875 0.1425,0.24125 0.27625,0.24125 l 0.3125,0 0,0.34625 -1.9725,0 z"
         inkscape:connector-curvature="0" />
      <path
         id="path4414"
         style="fill:#231f20;fill-opacity:1;fill-rule:nonzero;stroke:none"
         d="m -473.99167,847.07165 0,-0.1375 c 0,-0.52 -0.38,-0.90125 -0.9,-0.90125 l -0.3475,0 0,3.32375 c 0,0.13875 0.1375,0.24125 0.27875,0.24125 l 0.31,0 0,0.34625 -1.9725,0 0,-0.34625 0.3125,0 c 0.13625,0 0.24125,-0.1025 0.24125,-0.24125 l 0,-3.32375 -0.34875,0 c -0.48125,0 -0.89875,0.38125 -0.89875,0.90125 l 0,0.1375 -0.31,0 0,-1.41875 3.98,0 0,1.41875 -0.345,0 z"
         inkscape:connector-curvature="0" />
      <path
         id="path4418"
         style="fill:#231f20;fill-opacity:1;fill-rule:nonzero;stroke:none"
         d="m -469.57292,847.07165 0,-0.1375 c 0,-0.52 -0.38,-0.90125 -0.9,-0.90125 l -0.35,0 0,3.32375 c 0,0.13875 0.1425,0.24125 0.245,0.24125 l 0.31,0 0,0.34625 -1.93625,0 0,-0.34625 0.3125,0 c 0.13875,0 0.24125,-0.1025 0.24125,-0.24125 l 0,-3.32375 -0.34375,0 c -0.48625,0 -0.90375,0.38125 -0.90375,0.90125 l 0,0.1375 -0.3125,0 0,-1.41875 3.9825,0 0,1.41875 -0.345,0 z"
         inkscape:connector-curvature="0" />
      <path
         id="path4420"
         style="fill:#231f20;fill-opacity:1;fill-rule:nonzero;stroke:none"
         d="m -468.81292,849.94415 0,-0.34625 0.3125,0 c 0.13625,0 0.24125,-0.1025 0.24125,-0.24125 l 0,-3.11375 c 0,-0.13875 -0.105,-0.2775 -0.24125,-0.2775 l -0.3125,0 0,-0.3125 3.60125,0 0,1.41875 -0.31,0 0,-0.1375 c 0,-0.52 -0.4175,-0.90125 -0.90375,-0.90125 l -1.00375,0 0,1.55875 0.4175,0 c 0.27625,0 0.5175,-0.2425 0.5175,-0.52 l 0,-0.17125 0.3125,0 0,1.72875 -0.3125,0 0,-0.17125 c 0,-0.27875 -0.24125,-0.48625 -0.5175,-0.48625 l -0.4175,0 0,1.5925 1.10625,0 c 0.48625,0 0.90125,-0.415 0.90125,-0.89875 l 0,-0.3125 0.3125,0 0,1.59125 -3.70375,0 z"
         inkscape:connector-curvature="0" />
      <path
         id="path4424"
         style="fill:#231f20;fill-opacity:1;fill-rule:nonzero;stroke:none"
         d="m -462.43417,847.55665 -0.76125,0 0,-1.52375 0.76125,0 c 0.41375,0 0.7275,0.35 0.7275,0.7625 0,0.4125 -0.31375,0.76125 -0.7275,0.76125 m 1.96375,2.04125 c -0.17375,0 -0.3125,-0.0688 -0.415,-0.24125 l -0.90125,-1.41875 c 0.58875,-0.0338 1.0375,-0.52 1.0375,-1.1425 0,-0.6225 -0.48375,-1.1425 -1.10875,-1.1425 l -2.62875,0 0,0.3125 0.3125,0 c 0.13625,0 0.27625,0.13875 0.27625,0.2775 l 0,3.11375 c 0,0.13875 -0.14,0.24125 -0.27625,0.24125 l -0.3125,0 0,0.34625 1.9725,0 0,-0.34625 -0.31,0 c -0.13875,0 -0.24375,-0.1025 -0.24375,-0.24125 l 0,-1.41875 0.34625,0 1.245,2.00625 1.21125,0 0,-0.34625 -0.205,0 z"
         inkscape:connector-curvature="0" />
      <path
         id="path4428"
         style="fill:#231f20;fill-opacity:1;fill-rule:nonzero;stroke:none"
         d="m -458.22167,850.0154 c -1.00625,0 -1.595,-0.34625 -1.595,-0.34625 l 0,-1.31625 0.34875,0 c 0.10375,0.79625 0.48375,1.28125 1.24625,1.28125 0.44875,0 0.7925,-0.2775 0.7925,-0.7275 0,-1.14 -2.42125,-0.3825 -2.42125,-2.11125 0,-0.865 0.69375,-1.21125 1.38375,-1.21125 0.9375,0 1.42125,0.34625 1.42125,0.34625 l 0,1.0725 -0.3125,0 c -0.13875,-0.6575 -0.415,-1.0375 -1.10875,-1.0375 -0.38,0 -0.69,0.2075 -0.69,0.585 0,1.0775 2.42125,0.48875 2.42125,2.18375 0,0.935 -0.69375,1.28125 -1.48625,1.28125"
         inkscape:connector-curvature="0" />
    </g>
    <g
       id="g3379"
       transform="matrix(4.0966817,0,0,4.0966817,1592.4776,-2632.2271)">
      <path
         id="path4422"
         style="fill:#231f20;fill-opacity:1;fill-rule:nonzero;stroke:none"
         d="m -466.92042,843.50915 0,-0.38375 0.38,0 c 0.17375,0 0.27625,-0.17 0.27625,-0.31 l 0,-3.87625 c 0,-0.17375 -0.105,-0.31 -0.27625,-0.31 l -0.38,0 0,-0.415 4.42875,0 0,1.7625 -0.38125,0 0,-0.17125 c 0,-0.625 -0.5175,-1.10875 -1.1425,-1.10875 l -1.20875,0 0,1.905 0.5175,0 c 0.34625,0 0.6225,-0.27875 0.6225,-0.625 l 0,-0.205 0.4175,0 0,2.10875 -0.4175,0 0,-0.2075 c 0,-0.34375 -0.27625,-0.6225 -0.6225,-0.6225 l -0.5175,0 0,2.0075 1.3475,0 c 0.6225,0 1.10625,-0.52 1.10625,-1.10875 l 0,-0.37875 0.4175,0 0,1.93875 -4.5675,0 z"
         inkscape:connector-curvature="0" />
      <path
         id="path4426"
         style="fill:#231f20;fill-opacity:1;fill-rule:nonzero;stroke:none"
         d="m -459.99917,841.3629 0.65625,-1.6625 0.69375,1.6625 -1.35,0 z m 3.4275,1.7625 c -0.21,0 -0.38125,-0.1 -0.45375,-0.31 l -1.86625,-4.67 -0.38,0 -1.8675,4.67 c -0.0712,0.21 -0.27875,0.31 -0.4175,0.31 l -0.3475,0 0,0.38375 1.975,0 0,-0.38375 -0.3825,0 c -0.17125,0 -0.3125,-0.17 -0.24,-0.31 l 0.37875,-0.96875 1.69625,0 0.38125,0.96875 c 0.0687,0.14 -0.0713,0.31 -0.24125,0.31 l -0.38125,0 0,0.38375 2.45625,0 0,-0.38375 -0.31,0 z"
         inkscape:connector-curvature="0" />
      <path
         id="path4430"
         style="fill:#231f20;fill-opacity:1;fill-rule:nonzero;stroke:none"
         d="m -451.31292,841.2579 c -0.17625,0 -0.31,0.13875 -0.31,0.3125 l 0,0.17375 0,1.31375 0,0.0675 c 0,0 -0.79625,0.48625 -2.04375,0.48625 -1.69625,0 -2.73125,-1.1425 -2.73125,-2.735 -0.002,-1.625 1.035,-2.73125 2.73125,-2.73125 1.21125,0 1.93875,0.34375 1.93875,0.34375 l 0,1.4875 -0.415,0 c -0.17375,-0.79625 -0.625,-1.385 -1.52375,-1.385 -1.10625,0 -1.59125,1.075 -1.59125,2.285 0,1.1775 0.52,2.24875 1.59125,2.24875 0.48625,0 0.79625,-0.1 1.0375,-0.34375 l 0,-1.21125 c 0,-0.17375 -0.13875,-0.3125 -0.31,-0.3125 l -0.45125,0 0,-0.415 2.39,0 0,0.415 -0.3125,0 z"
         inkscape:connector-curvature="0" />
      <path
         id="path4432"
         style="fill:#231f20;fill-opacity:1;fill-rule:nonzero;stroke:none"
         d="m -450.57542,843.50915 0,-0.38375 0.3825,0 c 0.16875,0 0.31,-0.17 0.31,-0.31 l 0,-3.87625 c 0,-0.17375 -0.14125,-0.31 -0.31,-0.31 l -0.3825,0 0,-0.415 2.595,0 0,0.415 -0.58875,0 c -0.1725,0 -0.3125,0.13625 -0.3125,0.31 l 0,4.11875 1.245,0 c 0.59125,0 1.11125,-0.52 1.11125,-1.10875 l 0,-0.37875 0.37875,0 0,1.93875 -4.42875,0 z"
         inkscape:connector-curvature="0" />
      <path
         id="path4434"
         style="fill:#231f20;fill-opacity:1;fill-rule:nonzero;stroke:none"
         d="m -445.59292,843.50915 0,-0.38375 0.38125,0 c 0.13875,0 0.2775,-0.17 0.2775,-0.31 l 0,-3.87625 c 0,-0.17375 -0.13875,-0.31 -0.2775,-0.31 l -0.38125,0 0,-0.415 4.42875,0 0,1.7625 -0.37875,0 0,-0.17125 c 0,-0.625 -0.52,-1.10875 -1.1425,-1.10875 l -1.20875,0 0,1.905 0.51625,0 c 0.34625,0 0.625,-0.27875 0.625,-0.625 l 0,-0.205 0.415,0 0,2.10875 -0.415,0 0,-0.2075 c 0,-0.34375 -0.27875,-0.6225 -0.625,-0.6225 l -0.51625,0 0,2.0075 1.34875,0 c 0.6225,0 1.105,-0.52 1.105,-1.10875 l 0,-0.37875 0.4175,0 0,1.93875 -4.57,0 z"
         inkscape:connector-curvature="0" />
    </g>
  </g>
</svg>
